<?xml version="1.0" encoding="utf-8"?>
<!-- Generator: Adobe Illustrator 15.0.0, SVG Export Plug-In . SVG Version: 6.00 Build 0)  -->
<!DOCTYPE svg PUBLIC "-//W3C//DTD SVG 1.1//EN" "http://www.w3.org/Graphics/SVG/1.1/DTD/svg11.dtd">
<svg version="1.1" id="Шар_1" xmlns="http://www.w3.org/2000/svg" xmlns:xlink="http://www.w3.org/1999/xlink" x="0px" y="0px"
	 width="45px" height="45px" viewBox="0 0 202.584 202.584" enable-background="new 0 0 202.584 202.584"
	 xml:space="preserve">
<path fill="#0253A1" d="M101.292,0C45.35,0,0,45.35,0,101.292c0,55.941,45.35,101.292,101.292,101.292
	c55.942,0,101.292-45.351,101.292-101.292C202.584,45.35,157.234,0,101.292,0z M139.002,55.728c-8.33,0.33-18.53-1.2-24,2
	c-4.47,5.53-2.65,17.35-3,27c8.67,0,17.33,0,26,0c-0.7,8.97-2.81,16.52-3,26c-7.33,0-14.67,0-22,0c-2.33,20.33-0.33,45-1,67
	c-9,0-18,0-27,0c0-22.33,0-44.67,0-67c-7.33,0-14.67,0-22,0c-0.89-4.71,0.52-16.08,0-26c7,0,14,0,21,0
	c-3.48-38.95,14.01-61.81,55-53C139.002,39.728,139.002,47.728,139.002,55.728z"/>
</svg>
