<?xml version="1.0" encoding="utf-8"?>
<!-- Generator: Adobe Illustrator 15.0.0, SVG Export Plug-In . SVG Version: 6.00 Build 0)  -->
<!DOCTYPE svg PUBLIC "-//W3C//DTD SVG 1.1//EN" "http://www.w3.org/Graphics/SVG/1.1/DTD/svg11.dtd">
<svg version="1.1" id="Icon_Set" xmlns="http://www.w3.org/2000/svg" xmlns:xlink="http://www.w3.org/1999/xlink" x="0px" y="0px"
	 width="160.026px" height="83.497px" viewBox="0 0 160.026 83.497" enable-background="new 0 0 160.026 83.497"
	 xml:space="preserve">
<g>
	
		<circle fill="none" stroke="#EC3438" stroke-width="3" stroke-linecap="round" stroke-linejoin="round" stroke-miterlimit="10" cx="95.971" cy="71.697" r="10.3"/>
	<path fill="none" stroke="#EC3438" stroke-width="3" stroke-linecap="round" stroke-linejoin="round" stroke-miterlimit="10" d="
		M99.465,71.697c0,1.902-1.542,3.444-3.445,3.444c-1.902,0-3.444-1.542-3.444-3.444"/>
	<path fill="none" stroke="#EC3438" stroke-width="3" stroke-linecap="round" stroke-linejoin="round" stroke-miterlimit="10" d="
		M85.671,72.288L85.671,72.288c-3.793,0-6.916-3.014-7.007-6.806c-0.132-5.474,0.861-13.045,6.348-18.006
		c1.589-1.436,3.446-2.539,5.425-3.356c3.851-1.59,14.841-6.825,24.447-18.06c6.324-7.396,15.361-12.049,25.09-12.3
		c0.373-0.01,0.75-0.014,1.133-0.014v22.48"/>
	<path fill="none" stroke="#EC3438" stroke-width="3" stroke-linecap="round" stroke-linejoin="round" stroke-miterlimit="10" d="
		M85.671,72.288L85.671,72.288c-3.793,0-6.916-3.014-7.007-6.806c-0.132-5.474,0.861-13.045,6.348-18.006
		c1.589-1.436,3.446-2.539,5.425-3.356c3.851-1.59,14.841-6.825,24.447-18.06c6.324-7.396,15.361-12.049,25.09-12.3
		c0.373-0.01,0.75-0.014,1.133-0.014v57.951"/>
	<path fill="none" stroke="#EC3438" stroke-width="3" stroke-linecap="round" stroke-linejoin="round" stroke-miterlimit="10" d="
		M141.106,13.747v-9.44c0-1.55,1.257-2.807,2.807-2.807h14.613"/>
	
		<line fill="none" stroke="#EC3438" stroke-width="3" stroke-linecap="round" stroke-linejoin="round" stroke-miterlimit="10" x1="158.526" y1="71.697" x2="106.271" y2="71.697"/>
	
		<polyline fill="none" stroke="#EC3438" stroke-width="3" stroke-linecap="round" stroke-linejoin="round" stroke-miterlimit="10" points="
		124.92,26.844 133.116,26.844 133.116,44.382 108.443,44.382 	"/>
	
		<line fill="none" stroke="#EC3438" stroke-width="3" stroke-linecap="round" stroke-linejoin="round" stroke-miterlimit="10" x1="133.116" y1="44.382" x2="133.116" y2="62.642"/>
</g>
<path fill="none" stroke="#EC3438" stroke-width="3" stroke-miterlimit="10" stroke-dasharray="3,6.6" d="M20.822,77.978
	C9.104,69.325,1.5,55.422,1.5,39.738S9.104,10.151,20.822,1.5"/>
<g>
	<g>
		
			<line fill="none" stroke="#EC3438" stroke-width="3" stroke-linecap="round" stroke-linejoin="round" stroke-miterlimit="10" x1="45.123" y1="32.353" x2="41.554" y2="32.353"/>
		
			<line fill="none" stroke="#EC3438" stroke-width="3" stroke-linecap="round" stroke-linejoin="round" stroke-miterlimit="10" x1="45.123" y1="47.126" x2="41.554" y2="47.126"/>
	</g>
	
		<line fill="none" stroke="#EC3438" stroke-width="3" stroke-linecap="round" stroke-linejoin="round" stroke-miterlimit="10" x1="54.047" y1="39.739" x2="50.477" y2="39.739"/>
	<g>
		
			<line fill="none" stroke="#EC3438" stroke-width="3" stroke-linecap="round" stroke-linejoin="round" stroke-miterlimit="10" x1="59.4" y1="32.353" x2="62.97" y2="32.353"/>
		
			<line fill="none" stroke="#EC3438" stroke-width="3" stroke-linecap="round" stroke-linejoin="round" stroke-miterlimit="10" x1="59.4" y1="47.126" x2="62.97" y2="47.126"/>
	</g>
</g>
</svg>
