<?xml version="1.0" encoding="utf-8"?>
<!-- Generator: Adobe Illustrator 15.0.0, SVG Export Plug-In . SVG Version: 6.00 Build 0)  -->
<!DOCTYPE svg PUBLIC "-//W3C//DTD SVG 1.1//EN" "http://www.w3.org/Graphics/SVG/1.1/DTD/svg11.dtd">
<svg version="1.1" id="Icon_Set" xmlns="http://www.w3.org/2000/svg" xmlns:xlink="http://www.w3.org/1999/xlink" x="0px" y="0px"
	 width="103.061px" height="83.498px" viewBox="0 0 103.061 83.498" enable-background="new 0 0 103.061 83.498"
	 xml:space="preserve">
<circle fill="none" stroke="#EC3438" stroke-width="3" stroke-linecap="round" stroke-linejoin="round" stroke-miterlimit="10" cx="18.817" cy="71.697" r="10.3"/>
<path fill="none" stroke="#EC3438" stroke-width="3" stroke-linecap="round" stroke-linejoin="round" stroke-miterlimit="10" d="
	M22.312,71.697c0,1.902-1.542,3.445-3.445,3.445c-1.902,0-3.444-1.543-3.444-3.445"/>
<path fill="none" stroke="#EC3438" stroke-width="3" stroke-linecap="round" stroke-linejoin="round" stroke-miterlimit="10" d="
	M8.518,72.288L8.518,72.288c-3.793,0-6.916-3.015-7.007-6.806c-0.132-5.474,0.861-13.045,6.348-18.006
	c1.589-1.436,3.446-2.539,5.425-3.355c3.851-1.591,14.841-6.825,24.447-18.061c6.324-7.396,15.361-12.049,25.09-12.299
	c0.373-0.01,0.75-0.015,1.133-0.015v22.479"/>
<path fill="none" stroke="#EC3438" stroke-width="3" stroke-linecap="round" stroke-linejoin="round" stroke-miterlimit="10" d="
	M8.518,72.288L8.518,72.288c-3.793,0-6.916-3.015-7.007-6.806c-0.132-5.474,0.861-13.045,6.348-18.006
	c1.589-1.436,3.446-2.539,5.425-3.355c3.851-1.591,14.841-6.825,24.447-18.061c6.324-7.396,15.361-12.049,25.09-12.299
	c0.373-0.01,0.75-0.015,1.133-0.015v57.95"/>
<path fill="none" stroke="#EC3438" stroke-width="3" stroke-linecap="round" stroke-linejoin="round" stroke-miterlimit="10" d="
	M63.953,13.747v-9.44c0-1.55,1.257-2.807,2.807-2.807h34.801"/>
<line fill="none" stroke="#EC3438" stroke-width="3" stroke-linecap="round" stroke-linejoin="round" stroke-miterlimit="10" x1="101.561" y1="71.697" x2="29.117" y2="71.697"/>
<polyline fill="none" stroke="#EC3438" stroke-width="3" stroke-linecap="round" stroke-linejoin="round" stroke-miterlimit="10" points="
	47.767,26.844 55.963,26.844 55.963,44.383 31.29,44.383 "/>
<line fill="none" stroke="#EC3438" stroke-width="3" stroke-linecap="round" stroke-linejoin="round" stroke-miterlimit="10" x1="55.963" y1="44.383" x2="55.963" y2="62.643"/>
</svg>
