<?xml version="1.0" encoding="utf-8"?>
<!-- Generator: Adobe Illustrator 15.0.0, SVG Export Plug-In . SVG Version: 6.00 Build 0)  -->
<!DOCTYPE svg PUBLIC "-//W3C//DTD SVG 1.1//EN" "http://www.w3.org/Graphics/SVG/1.1/DTD/svg11.dtd">
<svg version="1.1" id="Шар_1" xmlns="http://www.w3.org/2000/svg" xmlns:xlink="http://www.w3.org/1999/xlink" x="0px" y="0px"
	 width="91.823px" height="32.144px" viewBox="0 0 91.823 32.144" enable-background="new 0 0 91.823 32.144" xml:space="preserve">
<path fill="#E7363A" d="M10.106,28.648c-0.246-0.208-0.591-0.016-0.736,0c0.054,0.299-0.062,0.429-0.092,0.644
	C9.768,29.292,9.833,28.866,10.106,28.648z"/>
<path fill="#E7363A" d="M9.922,26.44c-0.63,0.199-0.74,0.916-1.197,1.288c0.1,0.207,0.58,0.035,0.829,0.092
	c-0.046-0.134,0.962-0.046,1.932-0.184C10.964,27.237,10.347,26.935,9.922,26.44z"/>
<path fill="#E7363A" d="M22.065,25.888c-2.238,2.331-6.973,2.166-11.131,2.576c-1.748,0.136-1.748,0.767-1.656,1.472
	c0.03,0.797-0.023,1.51-0.092,2.208c0.798-0.307,9.706-1.357,11.96-2.3C21.433,28.506,21.989,27.436,22.065,25.888z"/>
<path fill="#E7363A" d="M4.402,24.507c0.736,1.196,1.866,1.998,2.944,2.852c0.875,0.474,1.089,0.327,1.379,0.368
	c0.46-0.074,2.435-0.806,0.553-1.747C7.867,25.309,6.476,24.221,4.402,24.507z"/>
<path fill="#E7363A" d="M6.794,24.232c1.138,0.321,2.327,1.303,3.128,1.379c0.299,0.793,1.498,1.185,2.115,1.932
	c2.959-0.138,5.715-0.479,8.095-1.196c-1.322-1.606-3.296-2.385-5.703-2.76C11.958,23.201,9.297,24.071,6.794,24.232z"/>
<path fill="#E7363A" d="M14.797,23.036c2.484,0.491,4.481,1.468,5.797,3.128c0.585-0.303,1.034-0.744,1.38-1.288
	C20.494,23.458,17.323,21.304,14.797,23.036z"/>
<path fill="#E7363A" d="M1.917,9.421c0.745,4.562,1.312,10.096,2.392,14.627c0.242-0.096,0.563-0.111,0.92-0.092
	C4.95,18.287,4.444,12.844,1.917,9.421z"/>
<path fill="#E7363A" d="M0.17,7.857c-0.46,3.653,0.11,7.609,0.552,11.131c0.354,2.008-0.092,0.464,0.276,1.472
	c0.41,2.871,0.932,5.631,1.38,8.463c1.962,1.134,3.388,2.806,6.071,3.22c0.438-1.303-0.222-2.679,0-3.496
	c-0.359-0.353-0.805-0.173-1.011-0.369c-0.365-0.329-0.962-0.674-1.197-0.735c-0.92-0.675-1.633-1.556-2.484-2.3
	c-0.72-2.507-0.939-5.424-1.379-8.279C1.872,13.675,1.604,10.25,0.17,7.857z"/>
<path fill="#E7363A" d="M12.866,7.121c-0.372,0.817-0.383,3.07-0.276,4.416c0.294,3.704,1.161,7.41,1.012,11.316
	c0.759,0.062,1.357-0.583,1.747-1.104c0.522-0.69,1.166-1.46,1.196-2.392c0.035-0.977-0.203-2.085-0.368-3.128
	C15.66,12.928,13.59,9.636,12.866,7.121z"/>
<path fill="#E7363A" d="M0.63,7.121c3.768,3.5,4.941,9.595,5.06,16.744c2.423-0.399,5.022-0.621,7.452-1.012
	c0.05-5.654-1.606-10.787-0.828-16.283c-0.552-0.123-1.357,0.007-1.748-0.276C7.534,7.113,3.343,6.377,0.63,7.121z"/>
<path fill="#E7363A" d="M3.758,0.957c-0.36,1.269-1.79,4.389-0.091,5.151C3.984,4.833,3.627,2.655,3.758,0.957z"/>
<path fill="#E7363A" d="M4.218,0.313C4.137,1.992,4.355,4.158,4.31,6.108c2.059-0.303,4.722,0,6.348-0.735
	c0.287-1.925-0.046-3.995-0.828-5.152C8.193-0.239,6.153,0.133,4.218,0.313z"/>
<g>
	<path fill="#E7363A" d="M36.231,14.689v8.631h-1.973v-3.009c-0.481,0.185-0.95,0.272-1.467,0.272c-1.713,0-3.095-0.999-3.095-2.812
		v-3.083h1.972v2.786c0,0.802,0.493,1.209,1.172,1.209c0.53,0,0.974-0.087,1.418-0.284v-3.711H36.231z"/>
	<path fill="#E7363A" d="M42.011,21.84c0.506,0,0.938-0.197,1.183-0.468l1.48,0.851c-0.604,0.838-1.516,1.27-2.688,1.27
		c-2.108,0-3.415-1.418-3.415-3.254c0-1.838,1.331-3.255,3.279-3.255c1.799,0,3.132,1.393,3.132,3.255
		c0,0.258-0.025,0.506-0.074,0.739h-4.377C40.765,21.619,41.333,21.84,42.011,21.84z M43.145,19.596
		c-0.197-0.715-0.752-0.973-1.306-0.973c-0.704,0-1.172,0.345-1.344,0.973H43.145z"/>
	<path fill="#E7363A" d="M50.999,23.321l-1.148-1.628l-1.146,1.628h-2.121l2.207-3.133l-2.133-3.033h2.121l1.073,1.529l1.073-1.529
		h2.121l-2.133,3.033l2.208,3.133H50.999z"/>
	<path fill="#E7363A" d="M60.391,23.321h-1.85v-4.39h-1.333v1.837c0,1.862-0.937,2.762-2.736,2.553v-1.727
		c0.579,0.173,0.887-0.185,0.887-0.949v-3.489h5.031V23.321z"/>
	<path fill="#E7363A" d="M68.28,21.162c0,1.294-0.925,2.159-2.417,2.159h-2.885v-6.166h1.85v1.849h1.036
		C67.355,19.004,68.28,19.869,68.28,21.162z M66.48,21.162c0-0.32-0.235-0.555-0.605-0.555h-1.047v1.11h1.047
		C66.245,21.717,66.48,21.483,66.48,21.162z M70.746,17.155v6.166h-1.85v-6.166H70.746z"/>
	<path fill="#E7363A" d="M73.419,22.888c0-0.308,0.233-0.554,0.555-0.554c0.308,0,0.555,0.247,0.555,0.554
		c0,0.309-0.247,0.556-0.555,0.556C73.652,23.444,73.419,23.197,73.419,22.888z"/>
	<path fill="#E7363A" d="M83.923,20.238c0,1.824-1.43,3.217-3.194,3.217c-1.196,0-2.145-0.616-2.651-1.565v3.896h-0.616v-8.631
		h0.616v1.431c0.506-0.95,1.455-1.566,2.651-1.566C82.493,17.021,83.923,18.414,83.923,20.238z M83.306,20.238
		c0-1.469-1.146-2.627-2.614-2.627c-1.467,0-2.614,1.158-2.614,2.627c0,1.466,1.147,2.626,2.614,2.626
		C82.16,22.864,83.306,21.705,83.306,20.238z"/>
	<path fill="#E7363A" d="M91.823,17.155l-2.663,6.733c-0.469,1.183-1.381,1.983-2.441,1.897v-0.579
		c0.826,0.074,1.455-0.543,1.836-1.443l0.136-0.333l-2.835-6.276h0.665l2.49,5.488l2.146-5.488H91.823z"/>
</g>
</svg>
