<?xml version="1.0" encoding="utf-8"?>
<!-- Generator: Adobe Illustrator 15.0.0, SVG Export Plug-In . SVG Version: 6.00 Build 0)  -->
<!DOCTYPE svg PUBLIC "-//W3C//DTD SVG 1.1//EN" "http://www.w3.org/Graphics/SVG/1.1/DTD/svg11.dtd">
<svg version="1.1" id="Icon_Set" xmlns="http://www.w3.org/2000/svg" xmlns:xlink="http://www.w3.org/1999/xlink" x="0px" y="0px"
	 width="115.136px" height="83.604px" viewBox="0 0 115.136 83.604" enable-background="new 0 0 115.136 83.604"
	 xml:space="preserve">
<g>
	<circle fill="none" stroke="#EC3438" stroke-width="3" stroke-miterlimit="10" cx="57.568" cy="49.98" r="23.651"/>
	<rect x="1.5" y="17.856" fill="none" stroke="#EC3438" stroke-width="3" stroke-miterlimit="10" width="112.136" height="64.249"/>
	<circle fill="none" stroke="#EC3438" stroke-width="3" stroke-miterlimit="10" cx="95.724" cy="51.577" r="1.196"/>
	<circle fill="none" stroke="#EC3438" stroke-width="3" stroke-miterlimit="10" cx="19.413" cy="51.577" r="1.197"/>
	<polyline fill="none" stroke="#EC3438" stroke-width="3" stroke-miterlimit="10" points="11.492,17.856 11.492,8.821 
		103.644,8.821 103.644,17.856 	"/>
	<polyline fill="none" stroke="#EC3438" stroke-width="3" stroke-miterlimit="10" points="19.206,8.821 19.206,1.5 95.93,1.5 
		95.93,8.821 	"/>
</g>
<g>
	<path fill="#EC3438" d="M55.364,52.75v2.82h7.8v1.74h-7.8v3.84h-2.1v-3.84h-2.7v-1.74h2.7v-2.82h-2.7v-1.979h2.7v-10.62h7.5
		c3.479,0,6.3,2.82,6.3,6.3c0,3.45-2.82,6.299-6.3,6.299H55.364z M55.364,50.771h5.4c2.31,0,4.199-1.95,4.199-4.32
		c0-2.4-1.89-4.32-4.199-4.32h-5.4V50.771z"/>
</g>
</svg>
