<?xml version="1.0" encoding="utf-8"?>
<!-- Generator: Adobe Illustrator 15.0.0, SVG Export Plug-In . SVG Version: 6.00 Build 0)  -->
<!DOCTYPE svg PUBLIC "-//W3C//DTD SVG 1.1//EN" "http://www.w3.org/Graphics/SVG/1.1/DTD/svg11.dtd">
<svg version="1.1" id="Icon_Set" xmlns="http://www.w3.org/2000/svg" xmlns:xlink="http://www.w3.org/1999/xlink" x="0px" y="0px"
	 width="97.833px" height="107.918px" viewBox="0 0 97.833 107.918" enable-background="new 0 0 97.833 107.918"
	 xml:space="preserve">
<g>
	<g>
		<rect x="1.5" y="1.5" fill="none" stroke="#EC3438" stroke-width="3" stroke-miterlimit="10" width="70.19" height="96.458"/>
		<polyline fill="none" stroke="#EC3438" stroke-width="3" stroke-miterlimit="10" points="71.691,9.96 80.151,9.96 80.151,106.418 
			9.96,106.418 9.96,97.957 		"/>
		<rect x="9.96" y="9.96" fill="none" stroke="#EC3438" stroke-width="3" stroke-miterlimit="10" width="24.161" height="24.161"/>
		<polyline fill="none" stroke="#EC3438" stroke-width="3" stroke-miterlimit="10" points="27.306,16.776 27.306,27.305 
			16.776,27.305 16.776,16.776 		"/>
		<line fill="none" stroke="#EC3438" stroke-width="3" stroke-miterlimit="10" x1="8.573" y1="42.657" x2="64.349" y2="42.657"/>
		<line fill="none" stroke="#EC3438" stroke-width="3" stroke-miterlimit="10" x1="8.573" y1="51.521" x2="64.349" y2="51.521"/>
		<line fill="none" stroke="#EC3438" stroke-width="3" stroke-miterlimit="10" x1="8.573" y1="60.384" x2="64.349" y2="60.384"/>
		<line fill="none" stroke="#EC3438" stroke-width="3" stroke-miterlimit="10" x1="41.743" y1="9.96" x2="64.349" y2="9.96"/>
		<line fill="none" stroke="#EC3438" stroke-width="3" stroke-miterlimit="10" x1="41.743" y1="18.824" x2="64.349" y2="18.824"/>
		<line fill="none" stroke="#EC3438" stroke-width="3" stroke-miterlimit="10" x1="8.573" y1="69.247" x2="64.349" y2="69.247"/>
		<line fill="none" stroke="#EC3438" stroke-width="3" stroke-miterlimit="10" x1="64.349" y1="89.047" x2="45.056" y2="89.047"/>
		<polyline fill="none" stroke="#EC3438" stroke-width="3" stroke-miterlimit="10" points="62.785,77.508 62.785,83.347 
			46.62,83.347 46.62,77.508 		"/>
	</g>
	<g>
		
			<rect x="90.29" y="53.459" fill="none" stroke="#EC3438" stroke-width="3" stroke-miterlimit="10" width="6.043" height="36.394"/>
		<path fill="none" stroke="#EC3438" stroke-width="3" stroke-miterlimit="10" d="M93.103,100.328h0.418
			c1.553,0,2.813-1.259,2.813-2.813v-7.663H90.29v7.663C90.29,99.068,91.549,100.328,93.103,100.328z"/>
		<line fill="none" stroke="#EC3438" stroke-width="3" stroke-miterlimit="10" x1="93.312" y1="100.328" x2="93.312" y2="106.418"/>
		<path fill="none" stroke="#EC3438" stroke-width="3" stroke-miterlimit="10" d="M93.521,47.416h-0.418
			c-1.554,0-2.813,1.259-2.813,2.813v3.23h6.043v-3.23C96.333,48.675,95.074,47.416,93.521,47.416z"/>
	</g>
</g>
</svg>
