<?xml version="1.0" encoding="utf-8"?>
<!-- Generator: Adobe Illustrator 15.0.0, SVG Export Plug-In . SVG Version: 6.00 Build 0)  -->
<!DOCTYPE svg PUBLIC "-//W3C//DTD SVG 1.1//EN" "http://www.w3.org/Graphics/SVG/1.1/DTD/svg11.dtd">
<svg version="1.1" id="Icon_Set" xmlns="http://www.w3.org/2000/svg" xmlns:xlink="http://www.w3.org/1999/xlink" x="0px" y="0px"
	 width="99.27px" height="125.045px" viewBox="0 0 99.27 125.045" enable-background="new 0 0 99.27 125.045" xml:space="preserve">
<g id="XMLID_103_">
	
		<line id="XMLID_105_" fill="none" stroke="#EC3438" stroke-width="3" stroke-miterlimit="10" x1="20.972" y1="83.443" x2="7.492" y2="83.443"/>
	
		<line id="XMLID_104_" fill="none" stroke="#EC3438" stroke-width="3" stroke-miterlimit="10" x1="55.225" y1="11.841" x2="7.492" y2="11.841"/>
</g>
<path id="XMLID_102_" fill="none" stroke="#EC3438" stroke-width="3" stroke-miterlimit="10" d="M20.971,99.824H8.974
	c-4.128,0-7.474-3.347-7.474-7.475V8.974C1.5,4.846,4.846,1.5,8.974,1.5h44.771c4.127,0,7.474,3.346,7.474,7.474v61.572"/>
<line id="XMLID_101_" fill="none" stroke="#EC3438" stroke-width="3" stroke-miterlimit="10" x1="25.441" y1="6.728" x2="37.276" y2="6.728"/>
<line id="XMLID_100_" fill="none" stroke="#EC3438" stroke-width="3" stroke-linecap="round" stroke-linejoin="round" stroke-miterlimit="10" x1="97.77" y1="117.725" x2="34.46" y2="117.725"/>
<g id="XMLID_97_">
	
		<circle id="XMLID_99_" fill="none" stroke="#EC3438" stroke-width="3" stroke-linecap="round" stroke-linejoin="round" stroke-miterlimit="10" cx="32.493" cy="79.676" r="4"/>
	
		<path id="XMLID_98_" fill="none" stroke="#EC3438" stroke-width="3" stroke-linecap="round" stroke-linejoin="round" stroke-miterlimit="10" d="
		M41.014,83.285c0.52,0.247,1.1,0.39,1.713,0.39c2.209,0,4-1.79,4-3.999s-1.791-3.999-4-3.999c-0.613,0-1.193,0.143-1.713,0.39"/>
</g>
<line id="XMLID_96_" fill="none" stroke="#EC3438" stroke-width="3" stroke-linecap="round" stroke-linejoin="round" stroke-miterlimit="10" x1="28.332" y1="100.717" x2="35.609" y2="100.717"/>
<line id="XMLID_95_" fill="none" stroke="#EC3438" stroke-width="3" stroke-linecap="round" stroke-linejoin="round" stroke-miterlimit="10" x1="42.103" y1="100.717" x2="49.38" y2="100.717"/>
<line id="XMLID_94_" fill="none" stroke="#EC3438" stroke-width="3" stroke-linecap="round" stroke-linejoin="round" stroke-miterlimit="10" x1="55.872" y1="100.717" x2="63.15" y2="100.717"/>
<line id="XMLID_93_" fill="none" stroke="#EC3438" stroke-width="3" stroke-linecap="round" stroke-linejoin="round" stroke-miterlimit="10" x1="69.643" y1="100.717" x2="76.92" y2="100.717"/>
<path id="XMLID_92_" fill="none" stroke="#EC3438" stroke-width="3" stroke-linecap="round" stroke-linejoin="round" stroke-miterlimit="10" d="
	M78.147,110.057H27.105c-3.388,0-6.134-2.746-6.134-6.134V76.68c0-3.388,2.746-6.134,6.134-6.134h51.042
	c3.388,0,6.134,2.746,6.134,6.134v27.243C84.281,107.311,81.535,110.057,78.147,110.057z"/>
<path id="XMLID_91_" fill="none" stroke="#EC3438" stroke-width="3" stroke-linecap="round" stroke-linejoin="round" stroke-miterlimit="10" d="
	M84.281,84.034h9.236c2.348,0,4.252,1.903,4.252,4.252v31.007c0,2.349-1.904,4.252-4.252,4.252H38.711
	c-2.348,0-4.251-1.903-4.251-4.252v-9.236"/>
<path id="XMLID_90_" fill="none" stroke="#EC3438" stroke-width="3" stroke-linecap="round" stroke-linejoin="round" stroke-miterlimit="10" d="
	M74.642,83.675h-6.225c-1.259,0-2.279-1.02-2.279-2.278v-3.441c0-1.258,1.021-2.278,2.279-2.278h6.225
	c1.259,0,2.278,1.021,2.278,2.278v3.441C76.92,82.655,75.9,83.675,74.642,83.675z"/>
<g id="XMLID_82_">
	<path id="XMLID_87_" fill="#EC3438" d="M23.644,41.139c-0.203-0.261-0.447-0.479-0.726-0.649c-0.272-0.166-0.575-0.303-0.901-0.406
		c-0.324-0.103-0.67-0.175-1.03-0.217c-0.357-0.039-0.722-0.061-1.095-0.061h-4.294v11.078h2.391v-4.017h1.994
		c1.401,0,2.478-0.303,3.198-0.9c0.732-0.606,1.104-1.519,1.104-2.711c0-0.45-0.057-0.854-0.168-1.201
		C24.003,41.704,23.844,41.396,23.644,41.139z M21.71,42.647c0.094,0.156,0.141,0.37,0.141,0.637c0,0.228-0.033,0.428-0.099,0.595
		c-0.063,0.161-0.159,0.293-0.295,0.403c-0.14,0.112-0.326,0.2-0.555,0.261c-0.238,0.063-0.535,0.095-0.885,0.095h-2.029v-2.596
		h1.987c0.268,0,0.522,0.017,0.764,0.051c0.226,0.031,0.425,0.095,0.592,0.188C21.491,42.369,21.615,42.489,21.71,42.647z"/>
	<path id="XMLID_84_" fill="#EC3438" d="M30.197,39.806l-4.254,11.078h2.541l1.111-3.053h3.458l1.167,3.053h2.657l-4.509-11.078
		H30.197z M30.339,45.735l0.944-2.609l0.998,2.609H30.339z"/>
	<polygon id="XMLID_83_" fill="#EC3438" points="45.444,39.806 42.747,43.965 40.034,39.806 37.135,39.806 41.548,46.258 
		41.548,50.884 43.938,50.884 43.938,46.258 48.345,39.806 	"/>
</g>
</svg>
