<?xml version="1.0" encoding="utf-8"?>
<!-- Generator: Adobe Illustrator 15.0.0, SVG Export Plug-In . SVG Version: 6.00 Build 0)  -->
<!DOCTYPE svg PUBLIC "-//W3C//DTD SVG 1.1//EN" "http://www.w3.org/Graphics/SVG/1.1/DTD/svg11.dtd">
<svg version="1.1" id="Шар_1" xmlns="http://www.w3.org/2000/svg" xmlns:xlink="http://www.w3.org/1999/xlink" x="0px" y="0px"
	 width="45px" height="45px" viewBox="0 0 202.584 202.584" enable-background="new 0 0 202.584 202.584"
	 xml:space="preserve">
<path fill="#4C75A3" d="M101.292,0C45.351,0,0,45.35,0,101.292c0,55.941,45.351,101.292,101.292,101.292
	c55.942,0,101.292-45.351,101.292-101.292C202.584,45.35,157.234,0,101.292,0z M172.665,139.368c-5.75,5.59-20.69,1.979-31,3
	c-9.221-4.44-13.061-14.271-21.99-19c-7.09,0.91-4.881,11.119-7,17c-18.86,5.629-35.79-2.011-46-11
	c-17.57-15.471-30.02-43.121-36.99-63.991c8.39-1.19,19.5-3.01,27.99-1c8.04,11.96,11.39,28.6,24,35.99
	c4.36-4.76,6.51-19.85,3-27.99c-2.35-5.46-6.21-3.27-8-8c6-5.85,26.34-5.12,35-2c4.77,8.56-0.211,26.86,3,36.99
	c15.529-4.46,17.52-22.47,24.99-34.99c11.699,1.03,25.42-1.97,33,1c2.979,16.72-23.49,27.89-23,40.991
	C150.185,120.137,173.655,120.967,172.665,139.368z"/>
</svg>
